<svg xmlns="http://www.w3.org/2000/svg" width="64" height="64" id="500">
  <g transform="translate(-3 -1225.842)">
    <rect width="60" height="24" x="5" y="1245.842" rx="0" ry="0" style="fill:#f2f2f2;fill-opacity:1;fill-rule:evenodd;stroke:none;stroke-width:1px;stroke-linecap:butt;stroke-linejoin:miter;stroke-opacity:1"></rect>
    <rect width="58" height="22" x="6" y="1246.842" rx="0" ry="0" style="fill:#f9f9f9;fill-opacity:1;fill-rule:evenodd;stroke:none;stroke-width:1px;stroke-linecap:butt;stroke-linejoin:miter;stroke-opacity:1"></rect>
    <rect width="56" height="20" x="7" y="1247.842" rx="0" ry="0" style="fill:#808173;fill-opacity:1;fill-rule:evenodd;stroke:none;stroke-width:1px;stroke-linecap:butt;stroke-linejoin:miter;stroke-opacity:1"></rect>
    <rect width="16" height="20" x="47" y="1247.842" rx="0" ry="0" style="fill:#cbbda3;fill-opacity:1;fill-rule:evenodd;stroke:none;stroke-width:1px;stroke-linecap:butt;stroke-linejoin:miter;stroke-opacity:1"></rect>
    <rect width="4" height="20" x="59" y="1247.842" rx="0" ry="0" style="fill:#baad95;fill-opacity:1;fill-rule:evenodd;stroke:none;stroke-width:1px;stroke-linecap:butt;stroke-linejoin:miter;stroke-opacity:1"></rect>
    <path d="M7 1247.842v20h38.215a42 42 0 0 0 .785-8 42 42 0 0 0-1.785-12H7Z" style="fill:#cac4a9;fill-opacity:1;stroke:none;stroke-width:4;stroke-linecap:round;stroke-linejoin:round;stroke-miterlimit:4;stroke-dasharray:none;stroke-opacity:1"></path>
    <path d="M7 1247.842v20h33.096a37 37 0 0 0 .904-8 37 37 0 0 0-2.047-12H7Z" style="fill:#808173;fill-opacity:1;fill-rule:evenodd;stroke:none;stroke-width:1px;stroke-linecap:butt;stroke-linejoin:miter;stroke-opacity:1"></path>
    <path d="M7 1247.842v20h25.88a30 30 0 0 0 1.12-8 30 30 0 0 0-2.545-12H7Z" style="fill:#cac4a9;fill-opacity:1;stroke:none;stroke-width:4;stroke-linecap:round;stroke-linejoin:round;stroke-miterlimit:4;stroke-dasharray:none;stroke-opacity:1"></path>
    <path d="M7 1247.842v20h20.66a25 25 0 0 0 1.34-8 25 25 0 0 0-3.1-12H7Z" style="fill:#808173;fill-opacity:1;stroke:none;stroke-width:4;stroke-linecap:round;stroke-linejoin:round;stroke-miterlimit:4;stroke-dasharray:none;stroke-opacity:1"></path>
    <path d="M7 1247.842v20h9.473a15.96 15.96 0 0 0 3.527-9.998 15.958 15.958 0 0 0-3.53-10.002H7z" style="fill:#cbbda3;fill-opacity:1;stroke:none;stroke-width:4;stroke-linecap:round;stroke-linejoin:round;stroke-miterlimit:4;stroke-dasharray:none;stroke-opacity:1"></path>
    <path d="M19.545 1267.832s.226-1.17.777-2.027c.551-.856 1.635-2.042 2.733-2.78 1.098-.736 3.557-1.354 3.557-1.354s.08-.294.155-.629c.075-.334-.27-.034-.618-.34-1.29-1.387-1.964-3.247-.575-3.727.052-2.136 1.21-3.721 2.515-4.34 1.472-.647 2.981-.534 4.094.109 2.2 1.346 2.84 2.703 3.004 5.017.06.32.02.272.056.418.94.824.128 1.913-.09 2.257-.217.344.02.495-.169.914-.254.527-1.366 2.054-1.198 2.244.168.19.57.426 1 .857.979.958 1.434 2.3 1.79 3.38z" style="fill:#b2b2a6;fill-opacity:1;fill-rule:evenodd;stroke:none;stroke-width:.1;stroke-linecap:round;stroke-linejoin:round;stroke-miterlimit:4;stroke-dasharray:none;stroke-opacity:1"></path>
    <path d="M40 1249.842h1v1.066h-1zM40 1252.914h1v1.066h-1zM40 1255.986h1v1.066h-1zM40 1259.058h1v1.066h-1zM40 1262.13h1v1.066h-1zM40 1265.201h1v1.066h-1z" style="fill:#0ca178;fill-opacity:1;stroke:none;stroke-width:.1;stroke-linecap:round;stroke-linejoin:round;stroke-miterlimit:4;stroke-dasharray:none;stroke-opacity:1"></path>
    <path d="M7 1250.844a7 7 0 0 1 7 7 7 7 0 0 1-7 7v-7z" style="fill:#808173;fill-opacity:1;stroke:none;stroke-width:.1;stroke-linecap:round;stroke-linejoin:round;stroke-miterlimit:4;stroke-dasharray:none;stroke-opacity:1"></path>
    <path d="M6 1264.842v4h4v-1l-3-3z" style="fill:#808173;fill-opacity:1;stroke:none;stroke-linecap:round;stroke-linejoin:round"></path>
    <path d="M6 1250.842v-4h4v1l-3 3z" style="fill:#cc72bb;fill-opacity:1;stroke:none;stroke-linecap:round;stroke-linejoin:round"></path>
    <path d="m8 1252.377-2 .5.121.484 2-.5-.121-.484ZM8 1254.1l-2 .5.121.484 2-.5L8 1254.1ZM8 1251.377l-2 .5.121.484 2-.5-.121-.484Z" style="color:#000;font-style:normal;font-variant:normal;font-weight:400;font-stretch:normal;font-size:medium;line-height:normal;font-family:sans-serif;text-indent:0;text-align:start;text-decoration:none;text-decoration-line:none;text-decoration-style:solid;text-decoration-color:#000;letter-spacing:normal;word-spacing:normal;text-transform:none;direction:ltr;block-progression:tb;writing-mode:lr-tb;baseline-shift:baseline;text-anchor:start;white-space:normal;clip-rule:nonzero;display:inline;overflow:visible;visibility:visible;opacity:1;isolation:auto;mix-blend-mode:normal;color-interpolation:sRGB;color-interpolation-filters:linearRGB;solid-color:#000;solid-opacity:1;fill:#5d5f53;fill-opacity:1;fill-rule:evenodd;stroke:none;stroke-width:.5;stroke-linecap:butt;stroke-linejoin:miter;stroke-miterlimit:4;stroke-dasharray:none;stroke-dashoffset:0;stroke-opacity:1;color-rendering:auto;image-rendering:auto;shape-rendering:auto;text-rendering:auto;enable-background:accumulate"></path>
    <rect width="12" height="2" x="11" y="1248.842" rx="1" ry="1" style="fill:#5d5f53;fill-opacity:1;stroke:none;stroke-width:.5;stroke-linecap:round;stroke-linejoin:round;stroke-miterlimit:4;stroke-dasharray:none;stroke-opacity:1"></rect>
    <rect width="16" height="2" x="42" y="1248.842" rx="1" ry="1" style="fill:#5d5f53;fill-opacity:1;stroke:none;stroke-width:.5;stroke-linecap:round;stroke-linejoin:round;stroke-miterlimit:4;stroke-dasharray:none;stroke-opacity:1"></rect>
    <rect width="8" height="2" x="10" y="1264.842" rx="1" ry="1" style="fill:#5d5f53;fill-opacity:1;stroke:none;stroke-width:.5;stroke-linecap:round;stroke-linejoin:round;stroke-miterlimit:4;stroke-dasharray:none;stroke-opacity:1"></rect>
    <path d="M30.271 1252.206a4.932 4.932 0 0 0-2.181.43c-1.306.618-2.464 2.203-2.516 4.34-1.389.479-.715 2.34.574 3.728.347.305.695 0 .62.337-.076.335-.157.63-.157.63s-2.458.618-3.556 1.355c-1.098.737-2.182 1.922-2.733 2.78-.55.856-.777 2.026-.777 2.026h1.424s.226-1.17.777-2.027c.55-.857 1.635-2.042 2.733-2.78 1.097-.736 3.556-1.355 3.556-1.355s.081-.294.156-.629c.076-.334-.272-.032-.619-.337-1.29-1.388-1.963-3.25-.574-3.729.052-2.136 1.208-3.72 2.514-4.34a5.1 5.1 0 0 1 1.3-.373 4.563 4.563 0 0 0-.54-.057z" style="fill:#6f7365;fill-opacity:1;fill-rule:evenodd;stroke:none;stroke-width:.1;stroke-linecap:round;stroke-linejoin:round;stroke-miterlimit:4;stroke-dasharray:none;stroke-opacity:1"></path>
    <path d="M61.164 1247.842a3 13 0 0 1 .836 9 3 13 0 0 1-1.402 11H63v-20h-1.836z" style="fill:#a39782;fill-opacity:1;fill-rule:evenodd;stroke:none;stroke-width:1px;stroke-linecap:butt;stroke-linejoin:miter;stroke-opacity:1"></path>
    <path d="M59.021 1247.842v.178H59v.102h.021v.285H59v.1h.021v.285H59v.102h.021v.328H59v.1h.021v.285H59v.101h.021v.285H59v.1h.021v.286H59v.101h.021v.285H59v.1h.021v.285H59v.1h.021v.288H59v.1h.021v.285H59v.1h.021v.287H59v.1h.021v.285H59v.1h.021v.33H59v.1h.021v.285H59v.1h.021v.287H59v.1h.021v.285H59v.1h.021v.287H59v.1h.021v.286H59v.1h.021v.287H59v.1h.021v.285H59v.1h.021v.287H59v.1h.021v.285H59v.1h.021v.328H59v.102h.021v.285H59v.1h.021v.285H59v.102h.021v.285H59v.1h.021v.285H59v.102h.021v.285H59v.1h.021v.285H59v.102h.021v.285H59v.1h.021v.285H59v.101h.021v.286H59v.1h.021v.328H59v.1h.021v.287H59v.1h.021v.285H59v.1h.021v.287H59v.1h.021v.285H59v.1h.021v.287H59v.1h.021v.285H59v.1h.021v.288H59v.1h.021v.285H59v.1h.021v.287H59v.1h.021v.328H59v.1h.021v.287H59v.1h.021v.285H59v.1h.021v.287H59v.1h.021v.286H59v.1h.021v.285H59v.101h.021v.285H59v.1h.021v.286H59v.101h.021v.22h.1v-.22h.285v.22h.102v-.22h.285v.22h.1v-.22h.285v.22h.101v-.22h.285v.22h.1v-.22h.285v.22h.102v-.22h.285v.22h.1v-.22h.285v.22h.101v-.22h.328v.22h.1v-.22h.285v.22h.102v-.22h.285v.22H63v-20h-.078v.179h-.285v-.178h-.102v.178h-.285v-.178h-.1v.178h-.328v-.178h-.101v.178h-.285v-.178h-.1v.178h-.285v-.178h-.102v.178h-.285v-.178h-.1v.178h-.285v-.178h-.101v.178h-.285v-.178h-.1v.178h-.285v-.178h-.102v.178h-.285v-.178h-.1zm.1.28h.285v.285h-.285v-.285zm.387 0h.285v.285h-.285v-.285zm.385 0h.285v.285h-.285v-.285zm.386 0h.285v.285h-.285v-.285zm.385 0h.285v.285h-.285v-.285zm.387 0h.285v.285h-.285v-.285zm.385 0h.285v.285h-.285v-.285zm.386 0h.328v.285h-.328v-.285zm.428 0h.285v.285h-.285v-.285zm.387 0h.285v.285h-.285v-.285zm-3.516.384h.285v.285h-.285v-.285zm.387 0h.285v.285h-.285v-.285zm.385 0h.285v.285h-.285v-.285zm.386 0h.285v.285h-.285v-.285zm.385 0h.285v.285h-.285v-.285zm.387 0h.285v.285h-.285v-.285zm.385 0h.285v.285h-.285v-.285zm.386 0h.328v.285h-.328v-.285zm.428 0h.285v.285h-.285v-.285zm.387 0h.285v.285h-.285v-.285zm-3.516.387h.285v.328h-.285v-.328zm.387 0h.285v.328h-.285v-.328zm.385 0h.285v.328h-.285v-.328zm.386 0h.285v.328h-.285v-.328zm.385 0h.285v.328h-.285v-.328zm.387 0h.285v.328h-.285v-.328zm.385 0h.285v.328h-.285v-.328zm.386 0h.328v.328h-.328v-.328zm.428 0h.285v.328h-.285v-.328zm.387 0h.285v.328h-.285v-.328zm-3.516.428h.285v.285h-.285v-.285zm.387 0h.285v.285h-.285v-.285zm.385 0h.285v.285h-.285v-.285zm.386 0h.285v.285h-.285v-.285zm.385 0h.285v.285h-.285v-.285zm.387 0h.285v.285h-.285v-.285zm.385 0h.285v.285h-.285v-.285zm.386 0h.328v.285h-.328v-.285zm.428 0h.285v.285h-.285v-.285zm.387 0h.285v.285h-.285v-.285zm-3.516.387h.285v.285h-.285v-.285zm.387 0h.285v.285h-.285v-.285zm.385 0h.285v.285h-.285v-.285zm.386 0h.285v.285h-.285v-.285zm.385 0h.285v.285h-.285v-.285zm.387 0h.285v.285h-.285v-.285zm.385 0h.285v.285h-.285v-.285zm.386 0h.328v.285h-.328v-.285zm.428 0h.285v.285h-.285v-.285zm.387 0h.285v.285h-.285v-.285zm-3.516.384h.285v.285h-.285v-.285zm.387 0h.285v.285h-.285v-.285zm.385 0h.285v.285h-.285v-.285zm.386 0h.285v.285h-.285v-.285zm.385 0h.285v.285h-.285v-.285zm.387 0h.285v.285h-.285v-.285zm.385 0h.285v.285h-.285v-.285zm.386 0h.328v.285h-.328v-.285zm.428 0h.285v.285h-.285v-.285zm.387 0h.285v.285h-.285v-.285zm-3.516.387h.285v.285h-.285v-.285zm.387 0h.285v.285h-.285v-.285zm.385 0h.285v.285h-.285v-.285zm.386 0h.285v.285h-.285v-.285zm.385 0h.285v.285h-.285v-.285zm.387 0h.285v.285h-.285v-.285zm.385 0h.285v.285h-.285v-.285zm.386 0h.328v.285h-.328v-.285zm.428 0h.285v.285h-.285v-.285zm.387 0h.285v.285h-.285v-.285zm-3.516.385h.285v.285h-.285v-.285zm.387 0h.285v.285h-.285v-.285zm.385 0h.285v.285h-.285v-.285zm.386 0h.285v.285h-.285v-.285zm.385 0h.285v.285h-.285v-.285zm.387 0h.285v.285h-.285v-.285zm.385 0h.285v.285h-.285v-.285zm.386 0h.328v.285h-.328v-.285zm.428 0h.285v.285h-.285v-.285zm.387 0h.285v.285h-.285v-.285zm-3.516.385h.285v.287h-.285v-.287zm.387 0h.285v.287h-.285v-.287zm.385 0h.285v.287h-.285v-.287zm.386 0h.285v.287h-.285v-.287zm.385 0h.285v.287h-.285v-.287zm.387 0h.285v.287h-.285v-.287zm.385 0h.285v.287h-.285v-.287zm.386 0h.328v.287h-.328v-.287zm.428 0h.285v.287h-.285v-.287zm.387 0h.285v.287h-.285v-.287zm-3.516.386h.285v.285h-.285v-.285zm.387 0h.285v.285h-.285v-.285zm.385 0h.285v.285h-.285v-.285zm.386 0h.285v.285h-.285v-.285zm.385 0h.285v.285h-.285v-.285zm.387 0h.285v.285h-.285v-.285zm.385 0h.285v.285h-.285v-.285zm.386 0h.328v.285h-.328v-.285zm.428 0h.285v.285h-.285v-.285zm.387 0h.285v.285h-.285v-.285zm-3.516.385h.285v.287h-.285v-.287zm.387 0h.285v.287h-.285v-.287zm.385 0h.285v.287h-.285v-.287zm.386 0h.285v.287h-.285v-.287zm.385 0h.285v.287h-.285v-.287zm.387 0h.285v.287h-.285v-.287zm.385 0h.285v.287h-.285v-.287zm.386 0h.328v.287h-.328v-.287zm.428 0h.285v.287h-.285v-.287zm.387 0h.285v.287h-.285v-.287zm-3.516.387h.285v.285h-.285v-.285zm.387 0h.285v.285h-.285v-.285zm.385 0h.285v.285h-.285v-.285zm.386 0h.285v.285h-.285v-.285zm.385 0h.285v.285h-.285v-.285zm.387 0h.285v.285h-.285v-.285zm.385 0h.285v.285h-.285v-.285zm.386 0h.328v.285h-.328v-.285zm.428 0h.285v.285h-.285v-.285zm.387 0h.285v.285h-.285v-.285zm-3.516.385h.285v.33h-.285v-.33zm.387 0h.285v.33h-.285v-.33zm.385 0h.285v.33h-.285v-.33zm.386 0h.285v.33h-.285v-.33zm.385 0h.285v.33h-.285v-.33zm.387 0h.285v.33h-.285v-.33zm.385 0h.285v.33h-.285v-.33zm.386 0h.328v.33h-.328v-.33zm.428 0h.285v.33h-.285v-.33zm.387 0h.285v.33h-.285v-.33zm-3.516.43h.285v.284h-.285v-.285zm.387 0h.285v.284h-.285v-.285zm.385 0h.285v.284h-.285v-.285zm.386 0h.285v.284h-.285v-.285zm.385 0h.285v.284h-.285v-.285zm.387 0h.285v.284h-.285v-.285zm.385 0h.285v.284h-.285v-.285zm.386 0h.328v.284h-.328v-.285zm.428 0h.285v.284h-.285v-.285zm.387 0h.285v.284h-.285v-.285zm-3.516.384h.285v.287h-.285v-.287zm.387 0h.285v.287h-.285v-.287zm.385 0h.285v.287h-.285v-.287zm.386 0h.285v.287h-.285v-.287zm.385 0h.285v.287h-.285v-.287zm.387 0h.285v.287h-.285v-.287zm.385 0h.285v.287h-.285v-.287zm.386 0h.328v.287h-.328v-.287zm.428 0h.285v.287h-.285v-.287zm.387 0h.285v.287h-.285v-.287zm-3.516.387h.285v.285h-.285v-.285zm.387 0h.285v.285h-.285v-.285zm.385 0h.285v.285h-.285v-.285zm.386 0h.285v.285h-.285v-.285zm.385 0h.285v.285h-.285v-.285zm.387 0h.285v.285h-.285v-.285zm.385 0h.285v.285h-.285v-.285zm.386 0h.328v.285h-.328v-.285zm.428 0h.285v.285h-.285v-.285zm.387 0h.285v.285h-.285v-.285zm-3.516.385h.285v.287h-.285v-.287zm.387 0h.285v.287h-.285v-.287zm.385 0h.285v.287h-.285v-.287zm.386 0h.285v.287h-.285v-.287zm.385 0h.285v.287h-.285v-.287zm.387 0h.285v.287h-.285v-.287zm.385 0h.285v.287h-.285v-.287zm.386 0h.328v.287h-.328v-.287zm.428 0h.285v.287h-.285v-.287zm.387 0h.285v.287h-.285v-.287zm-3.516.386h.285v.285h-.285v-.285zm.387 0h.285v.285h-.285v-.285zm.385 0h.285v.285h-.285v-.285zm.386 0h.285v.285h-.285v-.285zm.385 0h.285v.285h-.285v-.285zm.387 0h.285v.285h-.285v-.285zm.385 0h.285v.285h-.285v-.285zm.386 0h.328v.285h-.328v-.285zm.428 0h.285v.285h-.285v-.285zm.387 0h.285v.285h-.285v-.285zm-3.516.385h.285v.287h-.285v-.287zm.387 0h.285v.287h-.285v-.287zm.385 0h.285v.287h-.285v-.287zm.386 0h.285v.287h-.285v-.287zm.385 0h.285v.287h-.285v-.287zm.387 0h.285v.287h-.285v-.287zm.385 0h.285v.287h-.285v-.287zm.386 0h.328v.287h-.328v-.287zm.428 0h.285v.287h-.285v-.287zm.387 0h.285v.287h-.285v-.287zm-3.516.387h.285v.285h-.285v-.285zm.387 0h.285v.285h-.285v-.285zm.385 0h.285v.285h-.285v-.285zm.386 0h.285v.285h-.285v-.285zm.385 0h.285v.285h-.285v-.285zm.387 0h.285v.285h-.285v-.285zm.385 0h.285v.285h-.285v-.285zm.386 0h.328v.285h-.328v-.285zm.428 0h.285v.285h-.285v-.285zm.387 0h.285v.285h-.285v-.285zm-3.516.384h.285v.288h-.285v-.288zm.387 0h.285v.288h-.285v-.288zm.385 0h.285v.288h-.285v-.288zm.386 0h.285v.288h-.285v-.288zm.385 0h.285v.288h-.285v-.288zm.387 0h.285v.288h-.285v-.288zm.385 0h.285v.288h-.285v-.288zm.386 0h.328v.288h-.328v-.288zm.428 0h.285v.288h-.285v-.288zm.387 0h.285v.288h-.285v-.288zm-3.516.387h.285v.285h-.285v-.285zm.387 0h.285v.285h-.285v-.285zm.385 0h.285v.285h-.285v-.285zm.386 0h.285v.285h-.285v-.285zm.385 0h.285v.285h-.285v-.285zm.387 0h.285v.285h-.285v-.285zm.385 0h.285v.285h-.285v-.285zm.386 0h.328v.285h-.328v-.285zm.428 0h.285v.285h-.285v-.285zm.387 0h.285v.285h-.285v-.285zm-3.516.385h.285v.328h-.285v-.328zm.387 0h.285v.328h-.285v-.328zm.385 0h.285v.328h-.285v-.328zm.386 0h.285v.328h-.285v-.328zm.385 0h.285v.328h-.285v-.328zm.387 0h.285v.328h-.285v-.328zm.385 0h.285v.328h-.285v-.328zm.386 0h.328v.328h-.328v-.328zm.428 0h.285v.328h-.285v-.328zm.387 0h.285v.328h-.285v-.328zm-3.516.43h.285v.285h-.285v-.285zm.387 0h.285v.285h-.285v-.285zm.385 0h.285v.285h-.285v-.285zm.386 0h.285v.285h-.285v-.285zm.385 0h.285v.285h-.285v-.285zm.387 0h.285v.285h-.285v-.285zm.385 0h.285v.285h-.285v-.285zm.386 0h.328v.285h-.328v-.285zm.428 0h.285v.285h-.285v-.285zm.387 0h.285v.285h-.285v-.285zm-3.516.384h.285v.286h-.285v-.286zm.387 0h.285v.286h-.285v-.286zm.385 0h.285v.286h-.285v-.286zm.386 0h.285v.286h-.285v-.286zm.385 0h.285v.286h-.285v-.286zm.387 0h.285v.286h-.285v-.286zm.385 0h.285v.286h-.285v-.286zm.386 0h.328v.286h-.328v-.286zm.428 0h.285v.286h-.285v-.286zm.387 0h.285v.286h-.285v-.286zm-3.516.387h.285v.285h-.285v-.285zm.387 0h.285v.285h-.285v-.285zm.385 0h.285v.285h-.285v-.285zm.386 0h.285v.285h-.285v-.285zm.385 0h.285v.285h-.285v-.285zm.387 0h.285v.285h-.285v-.285zm.385 0h.285v.285h-.285v-.285zm.386 0h.328v.285h-.328v-.285zm.428 0h.285v.285h-.285v-.285zm.387 0h.285v.285h-.285v-.285zm-3.516.385h.285v.285h-.285v-.285zm.387 0h.285v.285h-.285v-.285zm.385 0h.285v.285h-.285v-.285zm.386 0h.285v.285h-.285v-.285zm.385 0h.285v.285h-.285v-.285zm.387 0h.285v.285h-.285v-.285zm.385 0h.285v.285h-.285v-.285zm.386 0h.328v.285h-.328v-.285zm.428 0h.285v.285h-.285v-.285zm.387 0h.285v.285h-.285v-.285zm-3.516.387h.285v.285h-.285v-.285zm.387 0h.285v.285h-.285v-.285zm.385 0h.285v.285h-.285v-.285zm.386 0h.285v.285h-.285v-.285zm.385 0h.285v.285h-.285v-.285zm.387 0h.285v.285h-.285v-.285zm.385 0h.285v.285h-.285v-.285zm.386 0h.328v.285h-.328v-.285zm.428 0h.285v.285h-.285v-.285zm.387 0h.285v.285h-.285v-.285zm-3.516.384h.285v.286h-.285v-.286zm.387 0h.285v.286h-.285v-.286zm.385 0h.285v.286h-.285v-.286zm.386 0h.285v.286h-.285v-.286zm.385 0h.285v.286h-.285v-.286zm.387 0h.285v.286h-.285v-.286zm.385 0h.285v.286h-.285v-.286zm.386 0h.328v.286h-.328v-.286zm.428 0h.285v.286h-.285v-.286zm.387 0h.285v.286h-.285v-.286zm-3.516.387h.285v.285h-.285v-.285zm.387 0h.285v.285h-.285v-.285zm.385 0h.285v.285h-.285v-.285zm.386 0h.285v.285h-.285v-.285zm.385 0h.285v.285h-.285v-.285zm.387 0h.285v.285h-.285v-.285zm.385 0h.285v.285h-.285v-.285zm.386 0h.328v.285h-.328v-.285zm.428 0h.285v.285h-.285v-.285zm.387 0h.285v.285h-.285v-.285zm-3.516.385h.285v.285h-.285v-.285zm.387 0h.285v.285h-.285v-.285zm.385 0h.285v.285h-.285v-.285zm.386 0h.285v.285h-.285v-.285zm.385 0h.285v.285h-.285v-.285zm.387 0h.285v.285h-.285v-.285zm.385 0h.285v.285h-.285v-.285zm.386 0h.328v.285h-.328v-.285zm.428 0h.285v.285h-.285v-.285zm.387 0h.285v.285h-.285v-.285zm-3.516.387h.285v.285h-.285v-.285zm.387 0h.285v.285h-.285v-.285zm.385 0h.285v.285h-.285v-.285zm.386 0h.285v.285h-.285v-.285zm.385 0h.285v.285h-.285v-.285zm.387 0h.285v.285h-.285v-.285zm.385 0h.285v.285h-.285v-.285zm.386 0h.328v.285h-.328v-.285zm.428 0h.285v.285h-.285v-.285zm.387 0h.285v.285h-.285v-.285zm-3.516.384h.285v.328h-.285v-.328zm.387 0h.285v.328h-.285v-.328zm.385 0h.285v.328h-.285v-.328zm.386 0h.285v.328h-.285v-.328zm.385 0h.285v.328h-.285v-.328zm.387 0h.285v.328h-.285v-.328zm.385 0h.285v.328h-.285v-.328zm.386 0h.328v.328h-.328v-.328zm.428 0h.285v.328h-.285v-.328zm.387 0h.285v.328h-.285v-.328zm-3.516.428h.285v.287h-.285v-.287zm.387 0h.285v.287h-.285v-.287zm.385 0h.285v.287h-.285v-.287zm.386 0h.285v.287h-.285v-.287zm.385 0h.285v.287h-.285v-.287zm.387 0h.285v.287h-.285v-.287zm.385 0h.285v.287h-.285v-.287zm.386 0h.328v.287h-.328v-.287zm.428 0h.285v.287h-.285v-.287zm.387 0h.285v.287h-.285v-.287zm-3.516.387h.285v.285h-.285v-.285zm.387 0h.285v.285h-.285v-.285zm.385 0h.285v.285h-.285v-.285zm.386 0h.285v.285h-.285v-.285zm.385 0h.285v.285h-.285v-.285zm.387 0h.285v.285h-.285v-.285zm.385 0h.285v.285h-.285v-.285zm.386 0h.328v.285h-.328v-.285zm.428 0h.285v.285h-.285v-.285zm.387 0h.285v.285h-.285v-.285zm-3.516.385h.285v.287h-.285v-.287zm.387 0h.285v.287h-.285v-.287zm.385 0h.285v.287h-.285v-.287zm.386 0h.285v.287h-.285v-.287zm.385 0h.285v.287h-.285v-.287zm.387 0h.285v.287h-.285v-.287zm.385 0h.285v.287h-.285v-.287zm.386 0h.328v.287h-.328v-.287zm.428 0h.285v.287h-.285v-.287zm.387 0h.285v.287h-.285v-.287zm-3.516.386h.285v.285h-.285v-.285zm.387 0h.285v.285h-.285v-.285zm.385 0h.285v.285h-.285v-.285zm.386 0h.285v.285h-.285v-.285zm.385 0h.285v.285h-.285v-.285zm.387 0h.285v.285h-.285v-.285zm.385 0h.285v.285h-.285v-.285zm.386 0h.328v.285h-.328v-.285zm.428 0h.285v.285h-.285v-.285zm.387 0h.285v.285h-.285v-.285zm-3.516.385h.285v.287h-.285v-.287zm.387 0h.285v.287h-.285v-.287zm.385 0h.285v.287h-.285v-.287zm.386 0h.285v.287h-.285v-.287zm.385 0h.285v.287h-.285v-.287zm.387 0h.285v.287h-.285v-.287zm.385 0h.285v.287h-.285v-.287zm.386 0h.328v.287h-.328v-.287zm.428 0h.285v.287h-.285v-.287zm.387 0h.285v.287h-.285v-.287zm-3.516.387h.285v.285h-.285v-.285zm.387 0h.285v.285h-.285v-.285zm.385 0h.285v.285h-.285v-.285zm.386 0h.285v.285h-.285v-.285zm.385 0h.285v.285h-.285v-.285zm.387 0h.285v.285h-.285v-.285zm.385 0h.285v.285h-.285v-.285zm.386 0h.328v.285h-.328v-.285zm.428 0h.285v.285h-.285v-.285zm.387 0h.285v.285h-.285v-.285zm-3.516.385h.285v.287h-.285v-.287zm.387 0h.285v.287h-.285v-.287zm.385 0h.285v.287h-.285v-.287zm.386 0h.285v.287h-.285v-.287zm.385 0h.285v.287h-.285v-.287zm.387 0h.285v.287h-.285v-.287zm.385 0h.285v.287h-.285v-.287zm.386 0h.328v.287h-.328v-.287zm.428 0h.285v.287h-.285v-.287zm.387 0h.285v.287h-.285v-.287zm-3.516.386h.285v.285h-.285v-.285zm.387 0h.285v.285h-.285v-.285zm.385 0h.285v.285h-.285v-.285zm.386 0h.285v.285h-.285v-.285zm.385 0h.285v.285h-.285v-.285zm.387 0h.285v.285h-.285v-.285zm.385 0h.285v.285h-.285v-.285zm.386 0h.328v.285h-.328v-.285zm.428 0h.285v.285h-.285v-.285zm.387 0h.285v.285h-.285v-.285zm-3.516.385h.285v.287h-.285v-.287zm.387 0h.285v.287h-.285v-.287zm.385 0h.285v.287h-.285v-.287zm.386 0h.285v.287h-.285v-.287zm.385 0h.285v.287h-.285v-.287zm.387 0h.285v.287h-.285v-.287zm.385 0h.285v.287h-.285v-.287zm.386 0h.328v.287h-.328v-.287zm.428 0h.285v.287h-.285v-.287zm.387 0h.285v.287h-.285v-.287zm-3.516.387h.285v.328h-.285v-.328zm.387 0h.285v.328h-.285v-.328zm.385 0h.285v.328h-.285v-.328zm.386 0h.285v.328h-.285v-.328zm.385 0h.285v.328h-.285v-.328zm.387 0h.285v.328h-.285v-.328zm.385 0h.285v.328h-.285v-.328zm.386 0h.328v.328h-.328v-.328zm.428 0h.285v.328h-.285v-.328zm.387 0h.285v.328h-.285v-.328zm-3.516.427h.285v.288h-.285v-.288zm.387 0h.285v.288h-.285v-.288zm.385 0h.285v.288h-.285v-.288zm.386 0h.285v.288h-.285v-.288zm.385 0h.285v.288h-.285v-.288zm.387 0h.285v.288h-.285v-.288zm.385 0h.285v.288h-.285v-.288zm.386 0h.328v.288h-.328v-.288zm.428 0h.285v.288h-.285v-.288zm.387 0h.285v.288h-.285v-.288zm-3.516.387h.285v.285h-.285v-.285zm.387 0h.285v.285h-.285v-.285zm.385 0h.285v.285h-.285v-.285zm.386 0h.285v.285h-.285v-.285zm.385 0h.285v.285h-.285v-.285zm.387 0h.285v.285h-.285v-.285zm.385 0h.285v.285h-.285v-.285zm.386 0h.328v.285h-.328v-.285zm.428 0h.285v.285h-.285v-.285zm.387 0h.285v.285h-.285v-.285zm-3.516.385h.285v.287h-.285v-.287zm.387 0h.285v.287h-.285v-.287zm.385 0h.285v.287h-.285v-.287zm.386 0h.285v.287h-.285v-.287zm.385 0h.285v.287h-.285v-.287zm.387 0h.285v.287h-.285v-.287zm.385 0h.285v.287h-.285v-.287zm.386 0h.328v.287h-.328v-.287zm.428 0h.285v.287h-.285v-.287zm.387 0h.285v.287h-.285v-.287zm-3.516.387h.285v.285h-.285v-.285zm.387 0h.285v.285h-.285v-.285zm.385 0h.285v.285h-.285v-.285zm.386 0h.285v.285h-.285v-.285zm.385 0h.285v.285h-.285v-.285zm.387 0h.285v.285h-.285v-.285zm.385 0h.285v.285h-.285v-.285zm.386 0h.328v.285h-.328v-.285zm.428 0h.285v.285h-.285v-.285zm.387 0h.285v.285h-.285v-.285zm-3.516.384h.285v.286h-.285v-.286zm.387 0h.285v.286h-.285v-.286zm.385 0h.285v.286h-.285v-.286zm.386 0h.285v.286h-.285v-.286zm.385 0h.285v.286h-.285v-.286zm.387 0h.285v.286h-.285v-.286zm.385 0h.285v.286h-.285v-.286zm.386 0h.328v.286h-.328v-.286zm.428 0h.285v.286h-.285v-.286zm.387 0h.285v.286h-.285v-.286zm-3.516.387h.285v.285h-.285v-.285zm.387 0h.285v.285h-.285v-.285zm.385 0h.285v.285h-.285v-.285zm.386 0h.285v.285h-.285v-.285zm.385 0h.285v.285h-.285v-.285zm.387 0h.285v.285h-.285v-.285zm.385 0h.285v.285h-.285v-.285zm.386 0h.328v.285h-.328v-.285zm.428 0h.285v.285h-.285v-.285zm.387 0h.285v.285h-.285v-.285zm-3.516.385h.285v.285h-.285v-.285zm.387 0h.285v.285h-.285v-.285zm.385 0h.285v.285h-.285v-.285zm.386 0h.285v.285h-.285v-.285zm.385 0h.285v.285h-.285v-.285zm.387 0h.285v.285h-.285v-.285zm.385 0h.285v.285h-.285v-.285zm.386 0h.328v.285h-.328v-.285zm.428 0h.285v.285h-.285v-.285zm.387 0h.285v.285h-.285v-.285z" style="color:#000;font-style:normal;font-variant:normal;font-weight:400;font-stretch:normal;font-size:medium;line-height:normal;font-family:sans-serif;text-indent:0;text-align:start;text-decoration:none;text-decoration-line:none;text-decoration-style:solid;text-decoration-color:#000;letter-spacing:normal;word-spacing:normal;text-transform:none;direction:ltr;block-progression:tb;writing-mode:lr-tb;baseline-shift:baseline;text-anchor:start;white-space:normal;clip-rule:nonzero;display:inline;overflow:visible;visibility:visible;opacity:1;isolation:auto;mix-blend-mode:normal;color-interpolation:sRGB;color-interpolation-filters:linearRGB;solid-color:#000;solid-opacity:1;fill:#808173;fill-opacity:1;fill-rule:evenodd;stroke:none;stroke-width:.1;stroke-linecap:butt;stroke-linejoin:miter;stroke-miterlimit:4;stroke-dasharray:none;stroke-dashoffset:0;stroke-opacity:1;color-rendering:auto;image-rendering:auto;shape-rendering:auto;text-rendering:auto;enable-background:accumulate"></path>
    <path d="M64 1264.842v4h-4v-1l3-3zM64 1250.842v-4h-4v1l3 3z" style="fill:#cc72bb;fill-opacity:1;stroke:none;stroke-linecap:round;stroke-linejoin:round"></path>
    <circle cx="43.45" cy="1263.092" r="1.6" style="fill:#b2b2a6;fill-opacity:1;stroke:#808173;stroke-width:.30000001;stroke-linecap:round;stroke-linejoin:round;stroke-miterlimit:4;stroke-dasharray:none;stroke-opacity:1"></circle>
    <rect width="2" height=".5" x="42.5" y="1254.342" rx=".25" ry=".25" style="fill:#808173;fill-opacity:1;stroke:none;stroke-width:.30000001;stroke-linecap:round;stroke-linejoin:round;stroke-miterlimit:4;stroke-dasharray:none;stroke-opacity:1"></rect>
    <rect width="3" height=".5" x="42" y="1255.842" rx=".25" ry=".25" style="fill:#808173;fill-opacity:1;stroke:none;stroke-width:.30000001;stroke-linecap:round;stroke-linejoin:round;stroke-miterlimit:4;stroke-dasharray:none;stroke-opacity:1"></rect>
    <rect width="2" height=".5" x="42.5" y="1257.342" rx=".25" ry=".25" style="fill:#808173;fill-opacity:1;stroke:none;stroke-width:.30000001;stroke-linecap:round;stroke-linejoin:round;stroke-miterlimit:4;stroke-dasharray:none;stroke-opacity:1"></rect>
    <rect width="3" height=".5" x="42" y="1258.842" rx=".25" ry=".25" style="fill:#808173;fill-opacity:1;stroke:none;stroke-width:.30000001;stroke-linecap:round;stroke-linejoin:round;stroke-miterlimit:4;stroke-dasharray:none;stroke-opacity:1"></rect>
    <path d="M6 1265.045v.102h.807l2.89 2.89v.805h.1v-.826a.05.05 0 0 0-.016-.035l-2.92-2.92a.05.05 0 0 0-.035-.016H6Z" style="color:#000;font-style:normal;font-variant:normal;font-weight:400;font-stretch:normal;font-size:medium;line-height:normal;font-family:sans-serif;text-indent:0;text-align:start;text-decoration:none;text-decoration-line:none;text-decoration-style:solid;text-decoration-color:#000;letter-spacing:normal;word-spacing:normal;text-transform:none;direction:ltr;block-progression:tb;writing-mode:lr-tb;baseline-shift:baseline;text-anchor:start;white-space:normal;clip-rule:nonzero;display:inline;overflow:visible;visibility:visible;opacity:1;isolation:auto;mix-blend-mode:normal;color-interpolation:sRGB;color-interpolation-filters:linearRGB;solid-color:#000;solid-opacity:1;fill:#f2f2f2;fill-opacity:1;fill-rule:nonzero;stroke:none;stroke-width:.09999999;stroke-linecap:round;stroke-linejoin:round;stroke-miterlimit:4;stroke-dasharray:none;stroke-dashoffset:0;stroke-opacity:1;color-rendering:auto;image-rendering:auto;shape-rendering:auto;text-rendering:auto;enable-background:accumulate"></path>
    <path d="M10 1246.842H6v4h1l3-3z" style="fill:#808173;fill-opacity:1;stroke:none;stroke-linecap:round;stroke-linejoin:round"></path>
    <path d="M9.797 1246.842h-.102v.807l-2.89 2.89H6v.1h.826a.05.05 0 0 0 .035-.015l2.92-2.92a.05.05 0 0 0 .016-.035v-.827z" style="color:#000;font-style:normal;font-variant:normal;font-weight:400;font-stretch:normal;font-size:medium;line-height:normal;font-family:sans-serif;text-indent:0;text-align:start;text-decoration:none;text-decoration-line:none;text-decoration-style:solid;text-decoration-color:#000;letter-spacing:normal;word-spacing:normal;text-transform:none;direction:ltr;block-progression:tb;writing-mode:lr-tb;baseline-shift:baseline;text-anchor:start;white-space:normal;clip-rule:nonzero;display:inline;overflow:visible;visibility:visible;opacity:1;isolation:auto;mix-blend-mode:normal;color-interpolation:sRGB;color-interpolation-filters:linearRGB;solid-color:#000;solid-opacity:1;fill:#f2f2f2;fill-opacity:1;fill-rule:nonzero;stroke:none;stroke-width:.09999999;stroke-linecap:round;stroke-linejoin:round;stroke-miterlimit:4;stroke-dasharray:none;stroke-dashoffset:0;stroke-opacity:1;color-rendering:auto;image-rendering:auto;shape-rendering:auto;text-rendering:auto;enable-background:accumulate"></path>
    <path d="M64 1250.842v-4h-4v1l3 3z" style="fill:#808173;fill-opacity:1;stroke:none;stroke-linecap:round;stroke-linejoin:round"></path>
    <path d="M64 1250.64v-.102h-.807l-2.89-2.891v-.805h-.1v.827a.05.05 0 0 0 .016.035l2.92 2.92a.05.05 0 0 0 .035.016H64z" style="color:#000;font-style:normal;font-variant:normal;font-weight:400;font-stretch:normal;font-size:medium;line-height:normal;font-family:sans-serif;text-indent:0;text-align:start;text-decoration:none;text-decoration-line:none;text-decoration-style:solid;text-decoration-color:#000;letter-spacing:normal;word-spacing:normal;text-transform:none;direction:ltr;block-progression:tb;writing-mode:lr-tb;baseline-shift:baseline;text-anchor:start;white-space:normal;clip-rule:nonzero;display:inline;overflow:visible;visibility:visible;opacity:1;isolation:auto;mix-blend-mode:normal;color-interpolation:sRGB;color-interpolation-filters:linearRGB;solid-color:#000;solid-opacity:1;fill:#f2f2f2;fill-opacity:1;fill-rule:nonzero;stroke:none;stroke-width:.09999999;stroke-linecap:round;stroke-linejoin:round;stroke-miterlimit:4;stroke-dasharray:none;stroke-dashoffset:0;stroke-opacity:1;color-rendering:auto;image-rendering:auto;shape-rendering:auto;text-rendering:auto;enable-background:accumulate"></path>
    <path d="M60 1268.842h4v-4h-1l-3 3z" style="fill:#808173;fill-opacity:1;stroke:none;stroke-linecap:round;stroke-linejoin:round"></path>
    <path d="M60.203 1268.842h.102v-.806l2.89-2.891H64v-.1h-.826a.05.05 0 0 0-.035.016l-2.92 2.92a.05.05 0 0 0-.016.035v.826z" style="color:#000;font-style:normal;font-variant:normal;font-weight:400;font-stretch:normal;font-size:medium;line-height:normal;font-family:sans-serif;text-indent:0;text-align:start;text-decoration:none;text-decoration-line:none;text-decoration-style:solid;text-decoration-color:#000;letter-spacing:normal;word-spacing:normal;text-transform:none;direction:ltr;block-progression:tb;writing-mode:lr-tb;baseline-shift:baseline;text-anchor:start;white-space:normal;clip-rule:nonzero;display:inline;overflow:visible;visibility:visible;opacity:1;isolation:auto;mix-blend-mode:normal;color-interpolation:sRGB;color-interpolation-filters:linearRGB;solid-color:#000;solid-opacity:1;fill:#f2f2f2;fill-opacity:1;fill-rule:nonzero;stroke:none;stroke-width:.09999999;stroke-linecap:round;stroke-linejoin:round;stroke-miterlimit:4;stroke-dasharray:none;stroke-dashoffset:0;stroke-opacity:1;color-rendering:auto;image-rendering:auto;shape-rendering:auto;text-rendering:auto;enable-background:accumulate"></path>
    <path d="M53.689 1262.597a.521.521 0 0 0-.519.519v1.728c0 .284.235.518.519.518h.691a.521.521 0 0 0 .519-.518v-1.728a.521.521 0 0 0-.519-.519h-.691zm2.074 0a.521.521 0 0 0-.519.519v1.728c0 .284.234.518.519.518h.69a.521.521 0 0 0 .52-.518v-1.728a.521.521 0 0 0-.52-.519h-.69zm-4.494 0a.173.173 0 0 0-.172.173v1.35a.173.173 0 0 0 .001.02l-.001.012a.173.173 0 1 0 .345 0c0-.1.074-.173.173-.173h.691c.1 0 .173.074.173.173v.691a.169.169 0 0 1-.173.173h-.69a.169.169 0 0 1-.174-.173.173.173 0 1 0-.345 0c0 .284.234.518.518.518h.691a.521.521 0 0 0 .519-.518v-.691a.521.521 0 0 0-.519-.519h-.69a.498.498 0 0 0-.174.032v-.722h1.21a.173.173 0 1 0 0-.346h-1.383zm2.42.345h.691c.099 0 .173.074.173.173v1.728a.169.169 0 0 1-.173.173h-.691a.169.169 0 0 1-.173-.173v-1.728c0-.099.074-.173.173-.173zm2.074 0h.69c.1 0 .174.074.174.173v1.728a.169.169 0 0 1-.173.173h-.691a.169.169 0 0 1-.173-.173v-1.728c0-.099.074-.173.173-.173z" style="color:#000;font-style:normal;font-variant:normal;font-weight:400;font-stretch:normal;font-size:medium;line-height:normal;font-family:sans-serif;text-indent:0;text-align:start;text-decoration:none;text-decoration-line:none;text-decoration-style:solid;text-decoration-color:#000;letter-spacing:normal;word-spacing:normal;text-transform:none;direction:ltr;block-progression:tb;writing-mode:lr-tb;baseline-shift:baseline;text-anchor:start;white-space:normal;clip-rule:nonzero;display:inline;overflow:visible;visibility:visible;opacity:1;isolation:auto;mix-blend-mode:normal;color-interpolation:sRGB;color-interpolation-filters:linearRGB;solid-color:#000;solid-opacity:1;fill:#438379;fill-opacity:1;fill-rule:evenodd;stroke:none;stroke-width:1;stroke-linecap:round;stroke-linejoin:round;stroke-miterlimit:4;stroke-dasharray:none;stroke-dashoffset:0;stroke-opacity:1;color-rendering:auto;image-rendering:auto;shape-rendering:auto;text-rendering:auto;enable-background:accumulate"></path>
    <path d="M49.028 1262.604v.344h.354c.322 0 .484.153.543.342h-.897v.345h.897c-.059.189-.221.342-.543.342h-.354v.345h.002-.002l.918 1.034h.461l-.93-1.046c.442-.04.728-.34.801-.678h.474v-.345h-.474a.854.854 0 0 0-.165-.345h.639v-.344h-1.724z" style="color:#000;font-style:normal;font-variant:normal;font-weight:400;font-stretch:normal;font-size:medium;line-height:normal;font-family:sans-serif;text-indent:0;text-align:start;text-decoration:none;text-decoration-line:none;text-decoration-style:solid;text-decoration-color:#000;letter-spacing:normal;word-spacing:normal;text-transform:none;direction:ltr;block-progression:tb;writing-mode:lr-tb;baseline-shift:baseline;text-anchor:start;white-space:normal;clip-rule:nonzero;display:inline;overflow:visible;visibility:visible;opacity:1;isolation:auto;mix-blend-mode:normal;color-interpolation:sRGB;color-interpolation-filters:linearRGB;solid-color:#000;solid-opacity:1;fill:#438379;fill-opacity:1;fill-rule:evenodd;stroke:none;stroke-width:1;stroke-linecap:butt;stroke-linejoin:miter;stroke-miterlimit:4;stroke-dasharray:none;stroke-dashoffset:0;stroke-opacity:1;color-rendering:auto;image-rendering:auto;shape-rendering:auto;text-rendering:auto;enable-background:accumulate"></path>
    <path d="m8 1256.877-2 .5.121.484 2-.5-.121-.484ZM8 1255.877l-2 .5.121.484 2-.5-.121-.484ZM63.879 1255.877l-2 .5.121.484 2-.5-.121-.484zM63.879 1254.152l-2 .5.121.485 2-.5-.121-.485zM63.879 1256.877l-2 .5.121.484 2-.5-.121-.484zM63.879 1251.377l-2 .5.121.484 2-.5-.121-.484zM63.879 1252.377l-2 .5.121.484 2-.5-.121-.484z" style="color:#000;font-style:normal;font-variant:normal;font-weight:400;font-stretch:normal;font-size:medium;line-height:normal;font-family:sans-serif;text-indent:0;text-align:start;text-decoration:none;text-decoration-line:none;text-decoration-style:solid;text-decoration-color:#000;letter-spacing:normal;word-spacing:normal;text-transform:none;direction:ltr;block-progression:tb;writing-mode:lr-tb;baseline-shift:baseline;text-anchor:start;white-space:normal;clip-rule:nonzero;display:inline;overflow:visible;visibility:visible;opacity:1;isolation:auto;mix-blend-mode:normal;color-interpolation:sRGB;color-interpolation-filters:linearRGB;solid-color:#000;solid-opacity:1;fill:#5d5f53;fill-opacity:1;fill-rule:evenodd;stroke:none;stroke-width:.5;stroke-linecap:butt;stroke-linejoin:miter;stroke-miterlimit:4;stroke-dasharray:none;stroke-dashoffset:0;stroke-opacity:1;color-rendering:auto;image-rendering:auto;shape-rendering:auto;text-rendering:auto;enable-background:accumulate"></path>
    <path d="M17.006 1261.815h.345v-.355c0-.322.152-.484.342-.543v.898h.344v-.898c.19.06.342.222.342.543v.355h.345l1.035-.918v-.462l-1.047.93c-.04-.442-.339-.728-.677-.801v-.473h-.345v.473a.856.856 0 0 0-.345.165v-.638H17v1.724z" style="color:#000;font-style:normal;font-variant:normal;font-weight:400;font-stretch:normal;font-size:medium;line-height:normal;font-family:sans-serif;text-indent:0;text-align:start;text-decoration:none;text-decoration-line:none;text-decoration-style:solid;text-decoration-color:#000;letter-spacing:normal;word-spacing:normal;text-transform:none;direction:ltr;block-progression:tb;writing-mode:lr-tb;baseline-shift:baseline;text-anchor:start;white-space:normal;clip-rule:nonzero;display:inline;overflow:visible;visibility:visible;opacity:1;isolation:auto;mix-blend-mode:normal;color-interpolation:sRGB;color-interpolation-filters:linearRGB;solid-color:#000;solid-opacity:1;fill:#438379;fill-opacity:1;fill-rule:evenodd;stroke:none;stroke-width:1;stroke-linecap:butt;stroke-linejoin:miter;stroke-miterlimit:4;stroke-dasharray:none;stroke-dashoffset:0;stroke-opacity:1;color-rendering:auto;image-rendering:auto;shape-rendering:auto;text-rendering:auto;enable-background:accumulate"></path>
    <circle cx="61" cy="1260.862" r=".5" style="fill:#5d5f53;fill-opacity:1;stroke:none;stroke-width:1;stroke-linecap:round;stroke-linejoin:round;stroke-miterlimit:4;stroke-dasharray:none;stroke-opacity:1"></circle>
    <path d="M61 1262.01c-.147 0-.29.11-.355.248-.021.045-.062.06-.107.038a.314.314 0 0 0-.139-.035c-.2 0-.399.2-.399.4 0 .142.067.247.16.314.02.015.026.04.012.062a.69.69 0 0 0-.122.374c0 .22.112.417.275.556a.076.076 0 0 1 .024.052v.565c0 .043-.035.076-.076.085a.34.34 0 0 0-.273.343v.35h2v-.35a.34.34 0 0 0-.274-.343c-.042-.01-.076-.042-.076-.084v-.543c0-.03.018-.068.04-.087a.735.735 0 0 0 .26-.544.69.69 0 0 0-.123-.374.044.044 0 0 1 .013-.061.375.375 0 0 0 .16-.314c0-.2-.2-.4-.4-.4a.316.316 0 0 0-.154.043c-.035.02-.068.01-.084-.03-.061-.145-.209-.264-.362-.264z" style="fill:#5d5f53;fill-opacity:1;fill-rule:nonzero;stroke:none;stroke-width:.99999994"></path>
    <path d="M17.002 1259.579c0 .01 0 .01.01.012.016.016.41.101.579.125.362.052.624.03.822-.07.217-.11.4-.326.46-.542a.636.636 0 0 0 0-.275.811.811 0 0 0-.176-.303c-.022-.024-.037-.046-.034-.049 0 0 .131-.047.286-.099.294-.099.7-.238.704-.242l.059-.135c.032-.073.057-.137.057-.142 0 0 0-.01-.01-.01s-.283.097-.796.293l-.329.125c-.01 0-.046.017-.082.03l-.067.027-.028-.02a.607.607 0 0 0-.179-.076.78.78 0 0 0-.305 0 .481.481 0 0 0-.26.165.282.282 0 0 0-.033.228c.029.085.126.138.252.138a.609.609 0 0 0 .312-.102l.065-.038.04.028a.653.653 0 0 1 .241.33.57.57 0 0 1 .013.212c-.023.109-.102.191-.23.237-.203.073-.537.05-1.043-.073-.102-.025-.135-.03-.142-.025a3.798 3.798 0 0 0-.188.247c0 .001 0 0 0 0zm.336-2.698c0 .2.075.375.222.517.153.148.334.22.55.22a.84.84 0 0 0 .616-.264.841.841 0 0 0 .257-.518c.01-.046 0-.088 0-.143a.767.767 0 0 0-.531-.626.818.818 0 0 0-.609.044.93.93 0 0 0-.423.42.785.785 0 0 0-.08.35zm0-2.127c0 .046 0 .09.01.122.06.3.293.529.607.594a.816.816 0 0 0 .295 0 .913.913 0 0 0 .731-.754.747.747 0 0 0-.064-.385.82.82 0 0 0-.354-.355.823.823 0 0 0-.839.063 1.14 1.14 0 0 0-.214.202.88.88 0 0 0-.158.343.843.843 0 0 0-.014.166zm.258 1.958c0-.039 0-.058.012-.093a.452.452 0 0 1 .33-.326.602.602 0 0 1 .26 0 .818.818 0 0 1 .24.115c.14.106.242.264.272.421a.583.583 0 0 1 0 .2.424.424 0 0 1-.27.299c-.255.093-.58-.021-.743-.262a.534.534 0 0 1-.1-.306v-.047zm0-2.102c0-.094 0-.106.017-.157a.463.463 0 0 1 .324-.297.73.73 0 0 1 .268 0 .727.727 0 0 1 .492.486.863.863 0 0 1 .015.224.42.42 0 0 1-.24.31.448.448 0 0 1-.228.043.572.572 0 0 1-.291-.07.65.65 0 0 1-.335-.375c-.022-.064-.023-.066-.023-.167z" style="fill:#438379;fill-opacity:1"></path>
    <rect width="10" height="2" x="27" y="1248.842" rx=".833" ry="1" style="fill:#5d5f53;fill-opacity:1;stroke:none;stroke-width:.5;stroke-linecap:round;stroke-linejoin:round;stroke-miterlimit:4;stroke-dasharray:none;stroke-opacity:1"></rect>
  </g>
</svg>
